<?xml version="1.0" encoding="UTF-8"?>
<svg id="Layer_2" data-name="Layer 2" xmlns="http://www.w3.org/2000/svg" viewBox="0 0 32 32">
  <defs>
    <style>
      .cls-1 {
        fill: #9fefff;
        stroke-width: 0px;
      }
    </style>
  </defs>
  <g id="Layer_1-2" data-name="Layer 1">
    <path class="cls-1" d="m2.36,29.63h2.08L25.56,8.52l-2.08-2.08L2.36,27.56s0,2.08,0,2.08Zm-2.36,2.37v-5.41L25.91.67c.23-.2.48-.37.77-.49.29-.12.6-.18.91-.18s.6.06.89.17c.29.11.55.28.79.51l2.05,2.06c.24.23.41.49.51.79.11.3.16.59.16.89s-.06.61-.17.91c-.12.3-.28.56-.5.78L5.4,32s-5.4,0-5.4,0ZM29.63,4.39l-2.03-2.02,2.03,2.02Zm-5.11,3.1l-1.04-1.05,2.08,2.08-1.04-1.03Z"/>
  </g>
</svg>