<?xml version="1.0" encoding="UTF-8"?>
<svg id="Layer_2" data-name="Layer 2" xmlns="http://www.w3.org/2000/svg" viewBox="0 0 21.89 11">
  <defs>
    <style>
      .cls-1 {
        fill: #e1e3e3;
        stroke-width: 0px;
      }
    </style>
  </defs>
  <g id="Layer_1-2" data-name="Layer 1">
    <path class="cls-1" d="m5.5,7.12c-.45,0-.83-.16-1.14-.47-.31-.31-.47-.7-.47-1.14s.16-.83.47-1.14c.31-.31.7-.47,1.14-.47s.83.16,1.14.47c.31.31.47.7.47,1.14s-.16.83-.47,1.14c-.31.31-.7.47-1.14.47Zm0,3.88c-1.53,0-2.82-.54-3.89-1.61C.54,8.32,0,7.03,0,5.5c0-1.53.54-2.82,1.61-3.89C2.68.54,3.97,0,5.5,0c1.07,0,2.04.28,2.91.83.87.55,1.53,1.28,1.98,2.17h9l2.5,2.5-3.85,3.83-1.86-1.39-1.9,1.41-1.95-1.35h-1.94c-.46.89-1.12,1.61-1.98,2.17s-1.84.83-2.91.83Zm0-1.5c.96,0,1.79-.29,2.49-.87.7-.58,1.16-1.29,1.37-2.13h3.44l1.44,1,1.95-1.43,1.7,1.3,1.87-1.87-1-1h-9.4c-.21-.84-.67-1.55-1.37-2.13-.7-.58-1.53-.87-2.49-.87-1.1,0-2.04.39-2.83,1.18s-1.18,1.73-1.18,2.83.39,2.04,1.18,2.83,1.73,1.18,2.83,1.18Z"/>
  </g>
</svg>