<?xml version="1.0" encoding="UTF-8"?>
<svg id="Layer_2" data-name="Layer 2" xmlns="http://www.w3.org/2000/svg" viewBox="0 0 36 36">
  <defs>
    <style>
      .cls-1 {
        fill: #e1e3e3;
        stroke-width: 0px;
      }
    </style>
  </defs>
  <g id="Layer_1-2" data-name="Layer 1">
    <path class="cls-1" d="m18,16.91c-2.31,0-4.24-.81-5.79-2.42-1.55-1.61-2.32-3.63-2.32-6.04s.77-4.43,2.32-6.03c1.55-1.61,3.48-2.41,5.79-2.41s4.24.8,5.79,2.41c1.55,1.61,2.32,3.62,2.32,6.03s-.77,4.43-2.32,6.04c-1.55,1.61-3.48,2.42-5.79,2.42ZM0,36v-5.02c0-1.31.33-2.46,1-3.48.67-1.01,1.54-1.79,2.63-2.34,2.47-1.19,4.9-2.08,7.26-2.67,2.37-.6,4.74-.9,7.11-.9s4.73.3,7.09.91c2.36.61,4.77,1.5,7.24,2.67,1.11.54,2,1.32,2.67,2.33.67,1.01,1,2.17,1,3.47v5.02s-36,0-36,0Zm3.02-3.14h29.97v-1.88c0-.6-.18-1.18-.54-1.72-.36-.54-.83-.97-1.41-1.29-2.26-1.15-4.45-1.98-6.56-2.48-2.11-.5-4.27-.75-6.47-.75s-4.37.25-6.51.75c-2.13.5-4.32,1.33-6.55,2.48-.59.32-1.05.75-1.4,1.29-.35.54-.52,1.11-.52,1.72,0,0,0,1.88,0,1.88Zm14.98-19.09c1.44,0,2.65-.51,3.63-1.53.98-1.02,1.47-2.28,1.47-3.78s-.49-2.76-1.47-3.78c-.98-1.02-2.19-1.53-3.63-1.53s-2.65.51-3.63,1.53c-.98,1.02-1.47,2.28-1.47,3.78s.49,2.76,1.47,3.78c.98,1.02,2.19,1.53,3.63,1.53Z"/>
  </g>
</svg>