<?xml version="1.0" encoding="UTF-8"?>
<svg id="Layer_2" data-name="Layer 2" xmlns="http://www.w3.org/2000/svg" viewBox="0 0 19 15">
  <defs>
    <style>
      .cls-1 {
        fill: #e1e3e3;
        stroke-width: 0px;
      }
    </style>
  </defs>
  <g id="Layer_1-2" data-name="Layer 1">
    <path class="cls-1" d="m1.81,15c-.51,0-.93-.18-1.28-.53-.35-.35-.53-.78-.53-1.28V1.81c0-.51.18-.93.53-1.28s.78-.53,1.28-.53h15.38c.51,0,.93.18,1.28.53s.53.78.53,1.28v11.38c0,.51-.18.93-.53,1.28s-.78.53-1.28.53c0,0-15.38,0-15.38,0Zm7.69-6.94L1.5,2.94v10.25c0,.09.03.16.09.22.06.06.13.09.22.09h15.38c.09,0,.16-.03.22-.09.06-.06.09-.13.09-.22V2.94l-8,5.12Zm0-1.56l7.85-5H1.65l7.85,5ZM1.5,2.94v-1.44,11.69c0,.09.03.16.09.22.06.06.13.09.22.09h-.31V2.94Z"/>
  </g>
</svg>