<?xml version="1.0" encoding="UTF-8"?>
<svg id="Layer_2" data-name="Layer 2" xmlns="http://www.w3.org/2000/svg" viewBox="0 0 20.92 14">
  <defs>
    <style>
      .cls-1 {
        fill: #e1e3e3;
        stroke-width: 0px;
      }
    </style>
  </defs>
  <g id="Layer_1-2" data-name="Layer 1">
    <path class="cls-1" d="m10.46,11.08c1.13,0,2.1-.4,2.89-1.19.79-.79,1.19-1.76,1.19-2.89s-.4-2.1-1.19-2.89c-.79-.79-1.76-1.19-2.89-1.19s-2.1.4-2.89,1.19c-.79.79-1.19,1.76-1.19,2.89s.4,2.1,1.19,2.89c.79.79,1.76,1.19,2.89,1.19Zm0-1.38c-.75,0-1.39-.26-1.91-.79s-.79-1.16-.79-1.91.26-1.39.79-1.91,1.16-.79,1.91-.79,1.39.26,1.91.79.79,1.16.79,1.91-.26,1.39-.79,1.91-1.16.79-1.91.79Zm0,4.3c-2.3,0-4.39-.63-6.29-1.9-1.89-1.27-3.28-2.97-4.18-5.1C.89,4.87,2.29,3.17,4.18,1.9c1.89-1.27,3.98-1.9,6.28-1.9s4.39.63,6.29,1.9c1.89,1.27,3.28,2.97,4.18,5.1-.89,2.13-2.29,3.83-4.18,5.1-1.89,1.27-3.98,1.9-6.28,1.9Zm0-1.5c1.88,0,3.61-.5,5.19-1.49s2.78-2.33,3.61-4.01c-.83-1.68-2.04-3.02-3.61-4.01s-3.3-1.49-5.19-1.49-3.61.5-5.19,1.49-2.78,2.33-3.61,4.01c.83,1.68,2.04,3.02,3.61,4.01s3.3,1.49,5.19,1.49Z"/>
  </g>
</svg>