<?xml version="1.0" encoding="UTF-8"?>
<svg id="Layer_2" data-name="Layer 2" xmlns="http://www.w3.org/2000/svg" viewBox="0 0 17 17">
  <defs>
    <style>
      .cls-1 {
        fill: #aadff1;
        stroke-width: 0px;
      }
    </style>
  </defs>
  <g id="Layer_1-2" data-name="Layer 1">
    <path class="cls-1" d="m1.5,15.5h1.26L13,5.26l-1.26-1.26L1.5,14.24v1.26Zm-1.5,1.5v-3.38L13.19.43c.15-.14.32-.24.5-.32.18-.07.37-.11.57-.11s.39.04.58.11c.19.07.35.18.5.34l1.22,1.24c.16.14.27.31.33.5.07.19.1.38.1.57,0,.2-.03.39-.1.58-.07.18-.18.35-.33.5L3.38,17s-3.38,0-3.38,0ZM15.51,2.75l-1.26-1.26,1.26,1.26Zm-3.15,1.9l-.62-.64,1.26,1.26-.64-.62Z"/>
  </g>
</svg>