<?xml version="1.0" encoding="UTF-8"?>
<svg id="Layer_2" data-name="Layer 2" xmlns="http://www.w3.org/2000/svg" viewBox="0 0 17 17">
  <defs>
    <style>
      .cls-1 {
        fill: #e1e3e3;
        stroke-width: 0px;
      }
    </style>
  </defs>
  <g id="Layer_1-2" data-name="Layer 1">
    <path class="cls-1" d="m1.81,17c-.51,0-.93-.18-1.28-.53-.35-.35-.53-.78-.53-1.28V1.81c0-.51.18-.93.53-1.28.35-.35.78-.53,1.28-.53h6.7v1.5H1.81c-.08,0-.15.03-.21.1-.06.06-.1.13-.1.21v13.38c0,.08.03.15.1.21.06.06.13.1.21.1h6.7v1.5s-6.7,0-6.7,0Zm10.92-4.23l-1.04-1.08,2.43-2.43H5.6v-1.5h8.53l-2.43-2.43,1.04-1.08,4.27,4.27-4.27,4.27Z"/>
  </g>
</svg>