<?xml version="1.0" encoding="UTF-8"?>
<svg id="Layer_2" data-name="Layer 2" xmlns="http://www.w3.org/2000/svg" viewBox="0 0 15 16.88">
  <defs>
    <style>
      .cls-1 {
        fill: #e1e3e3;
        stroke-width: 0px;
      }
    </style>
  </defs>
  <g id="Layer_1-2" data-name="Layer 1">
    <path class="cls-1" d="m2.81,16.88c-.5,0-.92-.18-1.28-.53-.35-.35-.53-.78-.53-1.28V2.38H0V.88h4.5v-.88h6v.88h4.5v1.5h-1v12.69c0,.51-.18.93-.53,1.28s-.78.53-1.28.53c0,0-9.38,0-9.38,0ZM12.5,2.38H2.5v12.69c0,.09.03.16.09.22.06.06.13.09.22.09h9.38c.08,0,.15-.03.21-.1.06-.06.1-.13.1-.21,0,0,0-12.69,0-12.69Zm-7.6,11h1.5V4.38h-1.5v9Zm3.69,0h1.5V4.38h-1.5v9ZM2.5,2.38v13V2.38Z"/>
  </g>
</svg>