<?xml version="1.0" encoding="UTF-8"?>
<svg id="Layer_2" data-name="Layer 2" xmlns="http://www.w3.org/2000/svg" viewBox="0 0 20.92 18.68">
  <defs>
    <style>
      .cls-1 {
        fill: #e1e3e3;
        stroke-width: 0px;
      }
    </style>
  </defs>
  <g id="Layer_1-2" data-name="Layer 1">
    <path class="cls-1" d="m14.23,9.79l-1.12-1.12c.15-.83-.09-1.57-.71-2.23-.62-.66-1.39-.92-2.29-.77l-1.12-1.12c.23-.1.46-.18.69-.23.24-.05.5-.08.78-.08,1.13,0,2.1.4,2.89,1.19.79.79,1.19,1.75,1.19,2.89,0,.28-.03.54-.08.79-.05.24-.13.47-.23.68Zm3.18,3.11l-1.1-1.03c.63-.48,1.2-1.01,1.69-1.59s.91-1.23,1.26-1.96c-.83-1.68-2.03-3.02-3.59-4.01s-3.3-1.49-5.21-1.49c-.48,0-.96.03-1.43.1s-.93.17-1.38.3l-1.17-1.17c.63-.25,1.28-.44,1.94-.56.66-.12,1.34-.18,2.03-.18,2.34,0,4.46.65,6.34,1.94,1.88,1.29,3.26,2.98,4.12,5.06-.37.89-.85,1.73-1.44,2.5-.59.77-1.28,1.47-2.07,2.08Zm.81,5.78l-4.05-4.02c-.51.19-1.08.34-1.7.47-.62.12-1.29.18-2.01.18-2.35,0-4.46-.65-6.34-1.94-1.88-1.29-3.25-2.98-4.12-5.06.37-.88.85-1.71,1.43-2.47.58-.76,1.23-1.43,1.93-1.99L.59,1.05,1.65,0l17.63,17.63s-1.05,1.05-1.05,1.05ZM4.42,4.91c-.53.42-1.04.93-1.54,1.52-.5.59-.9,1.22-1.21,1.89.83,1.68,2.03,3.02,3.59,4.01,1.56.99,3.3,1.49,5.21,1.49.46,0,.91-.04,1.36-.12.45-.08.83-.16,1.15-.24l-1.27-1.3c-.17.07-.37.12-.59.17-.22.04-.44.06-.65.06-1.13,0-2.1-.4-2.89-1.19-.79-.79-1.19-1.75-1.19-2.89,0-.2.02-.41.06-.64.04-.22.1-.42.17-.61,0,0-2.2-2.17-2.2-2.17Z"/>
  </g>
</svg>